<mxfile host="Electron" modified="2024-01-04T22:44:20.090Z" agent="Mozilla/5.0 (Windows NT 10.0; Win64; x64) AppleWebKit/537.36 (KHTML, like Gecko) draw.io/22.0.2 Chrome/114.0.5735.289 Electron/25.8.4 Safari/537.36" etag="7rX8IuBjZBcOq1Ie2rYv" version="22.0.2" type="device">
  <diagram name="Strona-1" id="h2WLkj2qyGADKgaHyaSV">
    <mxGraphModel dx="1418" dy="828" grid="1" gridSize="10" guides="1" tooltips="1" connect="1" arrows="1" fold="1" page="1" pageScale="1" pageWidth="827" pageHeight="1169" math="0" shadow="0">
      <root>
        <mxCell id="0" />
        <mxCell id="1" parent="0" />
        <mxCell id="EYUodT9akqzmMVGfxFc3-4" value="" style="endArrow=none;html=1;rounded=0;" parent="1" edge="1">
          <mxGeometry width="50" height="50" relative="1" as="geometry">
            <mxPoint x="10" y="220" as="sourcePoint" />
            <mxPoint x="770" y="220" as="targetPoint" />
          </mxGeometry>
        </mxCell>
        <mxCell id="EYUodT9akqzmMVGfxFc3-5" value="" style="endArrow=none;html=1;rounded=0;" parent="1" edge="1">
          <mxGeometry width="50" height="50" relative="1" as="geometry">
            <mxPoint x="10" y="840" as="sourcePoint" />
            <mxPoint x="10" y="220" as="targetPoint" />
          </mxGeometry>
        </mxCell>
        <mxCell id="EYUodT9akqzmMVGfxFc3-6" value="" style="endArrow=none;html=1;rounded=0;" parent="1" edge="1">
          <mxGeometry width="50" height="50" relative="1" as="geometry">
            <mxPoint x="10" y="250" as="sourcePoint" />
            <mxPoint x="770" y="250" as="targetPoint" />
          </mxGeometry>
        </mxCell>
        <mxCell id="EYUodT9akqzmMVGfxFc3-13" value="" style="endArrow=none;html=1;rounded=0;" parent="1" edge="1">
          <mxGeometry width="50" height="50" relative="1" as="geometry">
            <mxPoint x="770" y="840" as="sourcePoint" />
            <mxPoint x="770" y="220" as="targetPoint" />
          </mxGeometry>
        </mxCell>
        <mxCell id="EYUodT9akqzmMVGfxFc3-34" value="" style="endArrow=none;html=1;rounded=0;fontFamily=Helvetica;fontSize=12;fontColor=default;" parent="1" edge="1">
          <mxGeometry width="50" height="50" relative="1" as="geometry">
            <mxPoint x="10" y="840" as="sourcePoint" />
            <mxPoint x="770" y="840" as="targetPoint" />
          </mxGeometry>
        </mxCell>
        <mxCell id="DOHr0hYEis4pRiLcCh-8-1" value="login" style="rounded=0;whiteSpace=wrap;html=1;dashed=1;" parent="1" vertex="1">
          <mxGeometry x="20" y="223.75" width="100" height="20" as="geometry" />
        </mxCell>
        <mxCell id="DOHr0hYEis4pRiLcCh-8-2" value="rola" style="rounded=0;whiteSpace=wrap;html=1;dashed=1;" parent="1" vertex="1">
          <mxGeometry x="130" y="223.75" width="100" height="20" as="geometry" />
        </mxCell>
        <mxCell id="qdX5j7-EQqceirbTKG9q-1" value="Edytor atrakcji:" style="text;html=1;strokeColor=none;fillColor=none;align=left;verticalAlign=middle;whiteSpace=wrap;rounded=0;fontStyle=1;dashed=1;" parent="1" vertex="1">
          <mxGeometry x="30" y="270" width="720" height="20" as="geometry" />
        </mxCell>
        <mxCell id="T_iTTgx06haUHR_iTa-R-1" value="=" style="rounded=0;whiteSpace=wrap;html=1;" parent="1" vertex="1">
          <mxGeometry x="730" y="310" width="20" height="470" as="geometry" />
        </mxCell>
        <mxCell id="T_iTTgx06haUHR_iTa-R-2" value="" style="whiteSpace=wrap;html=1;aspect=fixed;" parent="1" vertex="1">
          <mxGeometry x="730" y="290" width="20" height="20" as="geometry" />
        </mxCell>
        <mxCell id="T_iTTgx06haUHR_iTa-R-3" value="" style="triangle;whiteSpace=wrap;html=1;rotation=-90;" parent="1" vertex="1">
          <mxGeometry x="735" y="295" width="10" height="10" as="geometry" />
        </mxCell>
        <mxCell id="T_iTTgx06haUHR_iTa-R-4" value="" style="whiteSpace=wrap;html=1;aspect=fixed;" parent="1" vertex="1">
          <mxGeometry x="730" y="780" width="20" height="20" as="geometry" />
        </mxCell>
        <mxCell id="T_iTTgx06haUHR_iTa-R-5" value="" style="triangle;whiteSpace=wrap;html=1;rotation=90;" parent="1" vertex="1">
          <mxGeometry x="735" y="785" width="10" height="10" as="geometry" />
        </mxCell>
        <mxCell id="vj2doSW4zZvvi4BzWX74-2" value="" style="rounded=0;whiteSpace=wrap;html=1;" parent="1" vertex="1">
          <mxGeometry x="30" y="290" width="700" height="510" as="geometry" />
        </mxCell>
        <mxCell id="vj2doSW4zZvvi4BzWX74-3" value="Nazwa atrakcji:" style="text;html=1;strokeColor=none;fillColor=none;align=left;verticalAlign=middle;whiteSpace=wrap;rounded=0;" parent="1" vertex="1">
          <mxGeometry x="40" y="300" width="680" height="20" as="geometry" />
        </mxCell>
        <mxCell id="vj2doSW4zZvvi4BzWX74-4" value="edytowalne pole tekstowe na nazwę atrakcji" style="rounded=0;whiteSpace=wrap;html=1;" parent="1" vertex="1">
          <mxGeometry x="40" y="320" width="680" height="20" as="geometry" />
        </mxCell>
        <mxCell id="vj2doSW4zZvvi4BzWX74-5" value="Opis atrakcji:" style="text;html=1;strokeColor=none;fillColor=none;align=left;verticalAlign=middle;whiteSpace=wrap;rounded=0;" parent="1" vertex="1">
          <mxGeometry x="40" y="340" width="680" height="20" as="geometry" />
        </mxCell>
        <mxCell id="vj2doSW4zZvvi4BzWX74-6" value="edytowalne pole tekstowe na opis atrakcji" style="rounded=0;whiteSpace=wrap;html=1;" parent="1" vertex="1">
          <mxGeometry x="40" y="360" width="680" height="20" as="geometry" />
        </mxCell>
        <mxCell id="vj2doSW4zZvvi4BzWX74-13" value="Powrót" style="rounded=1;whiteSpace=wrap;html=1;" parent="1" vertex="1">
          <mxGeometry x="320" y="810" width="120" height="20" as="geometry" />
        </mxCell>
        <mxCell id="vj2doSW4zZvvi4BzWX74-14" value="Typ atrakcji:" style="text;html=1;strokeColor=none;fillColor=none;align=left;verticalAlign=middle;whiteSpace=wrap;rounded=0;" parent="1" vertex="1">
          <mxGeometry x="40" y="380" width="680" height="20" as="geometry" />
        </mxCell>
        <mxCell id="vj2doSW4zZvvi4BzWX74-15" value="lista wielokrotnego wyboru zawierająca typy atrakcji" style="rounded=0;whiteSpace=wrap;html=1;" parent="1" vertex="1">
          <mxGeometry x="40" y="400" width="660" height="50" as="geometry" />
        </mxCell>
        <mxCell id="vj2doSW4zZvvi4BzWX74-16" value="" style="whiteSpace=wrap;html=1;aspect=fixed;" parent="1" vertex="1">
          <mxGeometry x="695" y="430" width="20" height="20" as="geometry" />
        </mxCell>
        <mxCell id="vj2doSW4zZvvi4BzWX74-17" value="" style="triangle;whiteSpace=wrap;html=1;rotation=90;" parent="1" vertex="1">
          <mxGeometry x="700" y="435" width="10" height="10" as="geometry" />
        </mxCell>
        <mxCell id="FfB_7gxJOvNEDapdNmzO-1" value="" style="whiteSpace=wrap;html=1;aspect=fixed;" parent="1" vertex="1">
          <mxGeometry x="695" y="400" width="20" height="20" as="geometry" />
        </mxCell>
        <mxCell id="FfB_7gxJOvNEDapdNmzO-2" value="" style="triangle;whiteSpace=wrap;html=1;rotation=-90;" parent="1" vertex="1">
          <mxGeometry x="700" y="405" width="10" height="10" as="geometry" />
        </mxCell>
        <mxCell id="FfB_7gxJOvNEDapdNmzO-3" value="=" style="rounded=0;whiteSpace=wrap;html=1;" parent="1" vertex="1">
          <mxGeometry x="695" y="420" width="20" height="10" as="geometry" />
        </mxCell>
        <mxCell id="FfB_7gxJOvNEDapdNmzO-4" value="Adresy atrakcji:" style="text;html=1;strokeColor=none;fillColor=none;align=left;verticalAlign=middle;whiteSpace=wrap;rounded=0;" parent="1" vertex="1">
          <mxGeometry x="40" y="470" width="680" height="20" as="geometry" />
        </mxCell>
        <mxCell id="FfB_7gxJOvNEDapdNmzO-5" value="" style="rounded=0;whiteSpace=wrap;html=1;" parent="1" vertex="1">
          <mxGeometry x="40" y="490" width="660" height="90" as="geometry" />
        </mxCell>
        <mxCell id="FfB_7gxJOvNEDapdNmzO-8" value="" style="whiteSpace=wrap;html=1;aspect=fixed;" parent="1" vertex="1">
          <mxGeometry x="700" y="490" width="20" height="20" as="geometry" />
        </mxCell>
        <mxCell id="FfB_7gxJOvNEDapdNmzO-9" value="" style="triangle;whiteSpace=wrap;html=1;rotation=-90;" parent="1" vertex="1">
          <mxGeometry x="705" y="495" width="10" height="10" as="geometry" />
        </mxCell>
        <mxCell id="FfB_7gxJOvNEDapdNmzO-10" value="" style="whiteSpace=wrap;html=1;aspect=fixed;" parent="1" vertex="1">
          <mxGeometry x="700" y="560" width="20" height="20" as="geometry" />
        </mxCell>
        <mxCell id="FfB_7gxJOvNEDapdNmzO-11" value="" style="triangle;whiteSpace=wrap;html=1;rotation=90;" parent="1" vertex="1">
          <mxGeometry x="705" y="565" width="10" height="10" as="geometry" />
        </mxCell>
        <mxCell id="FfB_7gxJOvNEDapdNmzO-12" value="" style="rounded=0;whiteSpace=wrap;html=1;" parent="1" vertex="1">
          <mxGeometry x="700" y="510" width="20" height="50" as="geometry" />
        </mxCell>
        <mxCell id="FfB_7gxJOvNEDapdNmzO-15" value="" style="rounded=0;whiteSpace=wrap;html=1;align=left;" parent="1" vertex="1">
          <mxGeometry x="50" y="500" width="640" height="30" as="geometry" />
        </mxCell>
        <mxCell id="FfB_7gxJOvNEDapdNmzO-19" value="Przypisz nowy" style="rounded=1;whiteSpace=wrap;html=1;" parent="1" vertex="1">
          <mxGeometry x="590" y="505" width="90" height="20" as="geometry" />
        </mxCell>
        <mxCell id="FfB_7gxJOvNEDapdNmzO-21" value="&amp;lt;miejscowość&amp;gt;, &amp;lt;ulica&amp;gt;, &amp;lt;numer bydunku&amp;gt;, &amp;lt;numer lokalu&amp;gt;" style="text;html=1;strokeColor=default;fillColor=none;align=left;verticalAlign=middle;whiteSpace=wrap;rounded=0;dashed=1;" parent="1" vertex="1">
          <mxGeometry x="60" y="505" width="520" height="20" as="geometry" />
        </mxCell>
        <mxCell id="FfB_7gxJOvNEDapdNmzO-22" value="" style="rounded=0;whiteSpace=wrap;html=1;align=left;" parent="1" vertex="1">
          <mxGeometry x="50" y="540" width="640" height="30" as="geometry" />
        </mxCell>
        <mxCell id="FfB_7gxJOvNEDapdNmzO-25" value="&amp;lt;miejscowość&amp;gt;, &amp;lt;ulica&amp;gt;, &amp;lt;numer bydunku&amp;gt;, &amp;lt;numer lokalu&amp;gt;" style="text;html=1;strokeColor=default;fillColor=none;align=left;verticalAlign=middle;whiteSpace=wrap;rounded=0;dashed=1;" parent="1" vertex="1">
          <mxGeometry x="60" y="545" width="520" height="20" as="geometry" />
        </mxCell>
        <mxCell id="FfB_7gxJOvNEDapdNmzO-30" value="=" style="rounded=0;whiteSpace=wrap;html=1;" parent="1" vertex="1">
          <mxGeometry x="700" y="510" width="20" height="30" as="geometry" />
        </mxCell>
        <mxCell id="FfB_7gxJOvNEDapdNmzO-31" value="Ilustracje atrakcji:" style="text;html=1;strokeColor=none;fillColor=none;align=left;verticalAlign=middle;whiteSpace=wrap;rounded=0;" parent="1" vertex="1">
          <mxGeometry x="40" y="590" width="560" height="20" as="geometry" />
        </mxCell>
        <mxCell id="FfB_7gxJOvNEDapdNmzO-32" value="" style="rounded=0;whiteSpace=wrap;html=1;" parent="1" vertex="1">
          <mxGeometry x="40" y="610" width="660" height="180" as="geometry" />
        </mxCell>
        <mxCell id="FfB_7gxJOvNEDapdNmzO-33" value="Przypisz ilustrację" style="rounded=1;whiteSpace=wrap;html=1;" parent="1" vertex="1">
          <mxGeometry x="610" y="590" width="110" height="20" as="geometry" />
        </mxCell>
        <mxCell id="FfB_7gxJOvNEDapdNmzO-36" value="" style="whiteSpace=wrap;html=1;aspect=fixed;" parent="1" vertex="1">
          <mxGeometry x="700" y="610" width="20" height="20" as="geometry" />
        </mxCell>
        <mxCell id="FfB_7gxJOvNEDapdNmzO-37" value="" style="triangle;whiteSpace=wrap;html=1;rotation=-90;" parent="1" vertex="1">
          <mxGeometry x="705" y="615" width="10" height="10" as="geometry" />
        </mxCell>
        <mxCell id="FfB_7gxJOvNEDapdNmzO-38" value="" style="whiteSpace=wrap;html=1;aspect=fixed;" parent="1" vertex="1">
          <mxGeometry x="700" y="770" width="20" height="20" as="geometry" />
        </mxCell>
        <mxCell id="FfB_7gxJOvNEDapdNmzO-39" value="" style="triangle;whiteSpace=wrap;html=1;rotation=90;" parent="1" vertex="1">
          <mxGeometry x="705" y="775" width="10" height="10" as="geometry" />
        </mxCell>
        <mxCell id="FfB_7gxJOvNEDapdNmzO-40" value="" style="rounded=0;whiteSpace=wrap;html=1;" parent="1" vertex="1">
          <mxGeometry x="700" y="630" width="20" height="140" as="geometry" />
        </mxCell>
        <mxCell id="FfB_7gxJOvNEDapdNmzO-41" value="=" style="rounded=0;whiteSpace=wrap;html=1;" parent="1" vertex="1">
          <mxGeometry x="700" y="630" width="20" height="60" as="geometry" />
        </mxCell>
        <mxCell id="FfB_7gxJOvNEDapdNmzO-43" value="" style="rounded=0;whiteSpace=wrap;html=1;" parent="1" vertex="1">
          <mxGeometry x="50" y="620" width="640" height="160" as="geometry" />
        </mxCell>
        <mxCell id="FfB_7gxJOvNEDapdNmzO-47" value="ilustracja 1 z n" style="rounded=0;whiteSpace=wrap;html=1;" parent="1" vertex="1">
          <mxGeometry x="60" y="650" width="520" height="70" as="geometry" />
        </mxCell>
        <mxCell id="FfB_7gxJOvNEDapdNmzO-49" value="Usuń" style="rounded=1;whiteSpace=wrap;html=1;" parent="1" vertex="1">
          <mxGeometry x="590" y="650" width="90" height="20" as="geometry" />
        </mxCell>
        <mxCell id="FfB_7gxJOvNEDapdNmzO-51" value="edytowalne pole tekstowe na opis ilustracji 1 z n" style="rounded=0;whiteSpace=wrap;html=1;" parent="1" vertex="1">
          <mxGeometry x="60" y="740" width="520" height="30" as="geometry" />
        </mxCell>
        <mxCell id="iFdMPcChwmTjYAfZ6c88-4" value="Opis ilustracji:" style="text;html=1;strokeColor=none;fillColor=none;align=left;verticalAlign=middle;whiteSpace=wrap;rounded=0;" parent="1" vertex="1">
          <mxGeometry x="60" y="720" width="490" height="20" as="geometry" />
        </mxCell>
        <mxCell id="iFdMPcChwmTjYAfZ6c88-5" value="Ilustracja:" style="text;html=1;strokeColor=none;fillColor=none;align=left;verticalAlign=middle;whiteSpace=wrap;rounded=0;" parent="1" vertex="1">
          <mxGeometry x="60" y="630" width="490" height="20" as="geometry" />
        </mxCell>
        <mxCell id="7vwPjD8v54HHWO3C7Z47-1" value="Przypisz nowy" style="rounded=1;whiteSpace=wrap;html=1;" parent="1" vertex="1">
          <mxGeometry x="590" y="545" width="90" height="20" as="geometry" />
        </mxCell>
        <mxCell id="4FPNuw7gyJmFZ_Krvj3F-1" value="" style="html=1;verticalLabelPosition=bottom;align=center;labelBackgroundColor=#ffffff;verticalAlign=top;strokeWidth=2;shadow=0;dashed=0;shape=mxgraph.ios7.icons.home;" parent="1" vertex="1">
          <mxGeometry x="700" y="228.75" width="20" height="12.5" as="geometry" />
        </mxCell>
        <mxCell id="4FPNuw7gyJmFZ_Krvj3F-2" value="" style="html=1;verticalLabelPosition=bottom;align=center;labelBackgroundColor=#ffffff;verticalAlign=top;strokeWidth=2;shadow=0;dashed=0;shape=mxgraph.ios7.icons.back;fontFamily=Helvetica;fontSize=12;" parent="1" vertex="1">
          <mxGeometry x="750" y="230" width="11.76" height="10" as="geometry" />
        </mxCell>
        <mxCell id="4FPNuw7gyJmFZ_Krvj3F-3" value="" style="html=1;verticalLabelPosition=bottom;align=center;labelBackgroundColor=#ffffff;verticalAlign=top;strokeWidth=2;shadow=0;dashed=0;shape=mxgraph.ios7.icons.reload;fontFamily=Helvetica;fontSize=12;" parent="1" vertex="1">
          <mxGeometry x="730" y="230" width="10" height="10" as="geometry" />
        </mxCell>
        <mxCell id="4FPNuw7gyJmFZ_Krvj3F-4" value="[1]" style="text;html=1;strokeColor=none;fillColor=none;align=center;verticalAlign=middle;whiteSpace=wrap;rounded=0;fontSize=12;fontFamily=Helvetica;fontColor=default;" parent="1" vertex="1">
          <mxGeometry x="780" y="228.75" width="20" height="10" as="geometry" />
        </mxCell>
        <mxCell id="4FPNuw7gyJmFZ_Krvj3F-5" value="" style="endArrow=classic;html=1;rounded=0;fontFamily=Helvetica;fontSize=12;fontColor=default;exitX=0;exitY=0.75;exitDx=0;exitDy=0;" parent="1" source="4FPNuw7gyJmFZ_Krvj3F-4" target="4FPNuw7gyJmFZ_Krvj3F-2" edge="1">
          <mxGeometry width="50" height="50" relative="1" as="geometry">
            <mxPoint x="700" y="200" as="sourcePoint" />
            <mxPoint x="750" y="150" as="targetPoint" />
          </mxGeometry>
        </mxCell>
        <mxCell id="4FPNuw7gyJmFZ_Krvj3F-6" value="" style="shape=flexArrow;endArrow=classic;html=1;rounded=0;fontFamily=Helvetica;fontSize=12;fontColor=default;startWidth=9.30232558139535;endWidth=9.30232558139535;startSize=5.425581395348837;endSize=2.8674418604651164;width=4.651162790697675;" parent="1" edge="1">
          <mxGeometry width="50" height="50" relative="1" as="geometry">
            <mxPoint x="690" y="234.88" as="sourcePoint" />
            <mxPoint x="670" y="234.88" as="targetPoint" />
          </mxGeometry>
        </mxCell>
        <mxCell id="4FPNuw7gyJmFZ_Krvj3F-7" value="[2]" style="text;html=1;strokeColor=none;fillColor=none;align=center;verticalAlign=middle;whiteSpace=wrap;rounded=0;fontSize=12;fontFamily=Helvetica;fontColor=default;" parent="1" vertex="1">
          <mxGeometry x="740" y="200" width="40" height="10" as="geometry" />
        </mxCell>
        <mxCell id="4FPNuw7gyJmFZ_Krvj3F-8" value="" style="endArrow=classic;html=1;rounded=0;fontFamily=Helvetica;fontSize=12;fontColor=default;exitX=0.25;exitY=1;exitDx=0;exitDy=0;entryX=1;entryY=0;entryDx=0;entryDy=0;entryPerimeter=0;" parent="1" source="4FPNuw7gyJmFZ_Krvj3F-7" target="4FPNuw7gyJmFZ_Krvj3F-3" edge="1">
          <mxGeometry width="50" height="50" relative="1" as="geometry">
            <mxPoint x="690" y="230" as="sourcePoint" />
            <mxPoint x="740" y="180" as="targetPoint" />
          </mxGeometry>
        </mxCell>
        <mxCell id="4FPNuw7gyJmFZ_Krvj3F-9" value="[3]" style="text;html=1;strokeColor=none;fillColor=none;align=center;verticalAlign=middle;whiteSpace=wrap;rounded=0;fontSize=12;fontFamily=Helvetica;fontColor=default;" parent="1" vertex="1">
          <mxGeometry x="700" y="200" width="20" height="10" as="geometry" />
        </mxCell>
        <mxCell id="4FPNuw7gyJmFZ_Krvj3F-10" value="" style="endArrow=classic;html=1;rounded=0;fontFamily=Helvetica;fontSize=12;fontColor=default;entryX=0.437;entryY=-0.082;entryDx=0;entryDy=0;entryPerimeter=0;exitX=0.5;exitY=1;exitDx=0;exitDy=0;" parent="1" source="4FPNuw7gyJmFZ_Krvj3F-9" target="4FPNuw7gyJmFZ_Krvj3F-1" edge="1">
          <mxGeometry width="50" height="50" relative="1" as="geometry">
            <mxPoint x="720" y="160" as="sourcePoint" />
            <mxPoint x="710" y="170" as="targetPoint" />
          </mxGeometry>
        </mxCell>
        <mxCell id="4FPNuw7gyJmFZ_Krvj3F-11" value="[4]" style="text;html=1;strokeColor=none;fillColor=none;align=center;verticalAlign=middle;whiteSpace=wrap;rounded=0;fontSize=12;fontFamily=Helvetica;fontColor=default;" parent="1" vertex="1">
          <mxGeometry x="650" y="200" width="20" height="10" as="geometry" />
        </mxCell>
        <mxCell id="4FPNuw7gyJmFZ_Krvj3F-12" value="" style="endArrow=classic;html=1;rounded=0;fontFamily=Helvetica;fontSize=12;fontColor=default;exitX=0.748;exitY=1.065;exitDx=0;exitDy=0;exitPerimeter=0;" parent="1" source="4FPNuw7gyJmFZ_Krvj3F-11" edge="1">
          <mxGeometry width="50" height="50" relative="1" as="geometry">
            <mxPoint x="630" y="230" as="sourcePoint" />
            <mxPoint x="670" y="230" as="targetPoint" />
          </mxGeometry>
        </mxCell>
        <mxCell id="4FPNuw7gyJmFZ_Krvj3F-13" value="" style="sketch=0;pointerEvents=1;shadow=0;dashed=0;html=1;labelPosition=center;verticalLabelPosition=bottom;verticalAlign=top;align=center;shape=mxgraph.mscae.intune.account_portal" parent="1" vertex="1">
          <mxGeometry x="640" y="223.75" width="16.5" height="20" as="geometry" />
        </mxCell>
        <mxCell id="4FPNuw7gyJmFZ_Krvj3F-14" value="[5]" style="text;html=1;strokeColor=none;fillColor=none;align=center;verticalAlign=middle;whiteSpace=wrap;rounded=0;" parent="1" vertex="1">
          <mxGeometry x="620" y="190" width="20" height="30" as="geometry" />
        </mxCell>
        <mxCell id="4FPNuw7gyJmFZ_Krvj3F-15" value="" style="endArrow=classic;html=1;rounded=0;exitX=1;exitY=0.75;exitDx=0;exitDy=0;entryX=0.5;entryY=0;entryDx=0;entryDy=0;entryPerimeter=0;" parent="1" source="4FPNuw7gyJmFZ_Krvj3F-14" target="4FPNuw7gyJmFZ_Krvj3F-13" edge="1">
          <mxGeometry width="50" height="50" relative="1" as="geometry">
            <mxPoint x="590" y="240" as="sourcePoint" />
            <mxPoint x="640" y="190" as="targetPoint" />
          </mxGeometry>
        </mxCell>
        <mxCell id="4FPNuw7gyJmFZ_Krvj3F-16" value="&lt;b&gt;Legenda:&lt;/b&gt;&lt;br&gt;[1] Przycisk wylogowania&lt;span style=&quot;white-space: pre;&quot;&gt;&#x9;&lt;/span&gt;&lt;span style=&quot;white-space: pre;&quot;&gt;&#x9;&lt;span style=&quot;white-space: pre;&quot;&gt;&#x9;&lt;/span&gt;&lt;span style=&quot;white-space: pre;&quot;&gt;&#x9;&lt;span style=&quot;white-space: pre;&quot;&gt;&#x9;&lt;/span&gt;&lt;span style=&quot;white-space: pre;&quot;&gt;&#x9;&lt;span style=&quot;white-space: pre;&quot;&gt;&#x9;&lt;/span&gt;&lt;/span&gt;&lt;/span&gt;&lt;/span&gt;[2] Przycisk odświeżenia interfejsu&lt;br&gt;[3] Przycisk otwarcia ekranu domowego&lt;span style=&quot;white-space: pre;&quot;&gt;&#x9;&lt;/span&gt;&lt;span style=&quot;white-space: pre;&quot;&gt;&#x9;&lt;span style=&quot;white-space: pre;&quot;&gt;&#x9;&lt;/span&gt;&lt;span style=&quot;white-space: pre;&quot;&gt;&#x9;&lt;/span&gt;&lt;span style=&quot;white-space: pre;&quot;&gt;&#x9;&lt;/span&gt;&lt;/span&gt;[4] Przycisk otwarcia uprzednio otwartego ekranu&lt;br&gt;[5] Przycisk otwarcia ekranu szegółów swojego konta&lt;span style=&quot;white-space: pre;&quot;&gt;&#x9;&lt;/span&gt;&lt;span style=&quot;white-space: pre;&quot;&gt;&#x9;&lt;/span&gt;" style="text;html=1;align=left;verticalAlign=middle;resizable=0;points=[];autosize=1;strokeColor=none;fillColor=none;dashed=1;" parent="1" vertex="1">
          <mxGeometry x="90" y="840" width="610" height="70" as="geometry" />
        </mxCell>
        <mxCell id="uJzUwwhPL0qXaMOUi5mz-1" value="Zatwierdź dane podstawowe" style="rounded=1;whiteSpace=wrap;html=1;" vertex="1" parent="1">
          <mxGeometry x="292.5" y="460" width="175" height="20" as="geometry" />
        </mxCell>
        <mxCell id="uJzUwwhPL0qXaMOUi5mz-4" value="Zatwierdź" style="rounded=1;whiteSpace=wrap;html=1;" vertex="1" parent="1">
          <mxGeometry x="590" y="740" width="90" height="20" as="geometry" />
        </mxCell>
      </root>
    </mxGraphModel>
  </diagram>
</mxfile>
